<svg xmlns="http://www.w3.org/2000/svg" width="113" height="106" viewBox="0 0 113 106">
  <ellipse cx="37.81" cy="36.79" fill="#ffffff" stroke-width="null" rx="36.98" ry="36.2"/>
  <path fill="#FDC305" d="M57.31 27.5a22.3 22.3 0 0 0-6.88-9.13 21.5 21.5 0 0 0-21.62-2.95 21.95 21.95 0 0 0-9 6.97 22.76 22.76 0 0 0-3.04 22.04 22.31 22.31 0 0 0 6.77 9.22c3 2.42 6.58 4 10.37 4.56-.5-1.82-1-3.84-1.45-5.98 1.3.86 2.66 1.6 4.07 2.23 0 0 .1 1.88.24 3.99a21.8 21.8 0 0 0 4.56-.41 1.9 1.9 0 0 1 0-.67c.25-1.63.93-4.57 1.07-6.46.98-.94 1.82-2.03 2.48-3.24l-.05.39c-.47 3.71-1.46 7.68-2.06 8.78-.19.37-.43.7-.7 1 3.09-.74 6-2.15 8.5-4.15 2.5-2 4.55-4.53 6-7.42a22.73 22.73 0 0 0 .74-18.77zm-1.25 3.3c-.38.38-1.16.64-1.29-.5-.13-1.13-.16-1.93-.16-1.93s-1.65-2.99-2.27-3.02c-.61-.04-4.98 3.02-6.14 4.36-1 1.12-1.2 1.05-1.2 3.03 0 1.49.2 7.12.1 11.43l-6.98 1.9a53.8 53.8 0 0 1-6.67 1.5l-.85-5.09h-.12L28.28 31s-3.26-1.26-4.46-1.6a3.16 3.16 0 0 0-3.42.55 4.42 4.42 0 0 0-1.48 3.36c.18.4.32.83.41 1.27.05.42-1.02.37-1.7.37-.7 0-.8-1.25-.25-2.73a20.7 20.7 0 0 1 1.55-3.26c.46-.93 1.06-1.78 1.77-2.52 0 0 .12-.3 1.07-.21.95.09 6.23.37 6.23.37l.04-1.98c5.73-.8 11.52-1.2 17.3-1.17v1.6a18.95 18.95 0 0 1 6.97-1.74.76.76 0 0 1 .66.34c.29.37 2.06 2.61 2.26 2.94.58.83 1.1 1.7 1.57 2.61a5.5 5.5 0 0 1-.74 1.6v.02z"/>
  <path fill="#F06351" d="m54.39 25.47.85 1.12c.58.84 1.1 1.72 1.57 2.62a5.5 5.5 0 0 1-.74 1.55c-.37.38-1.15.63-1.28-.5-.13-1.14-.18-1.89-.18-1.89s-1.65-2.99-2.27-3.02c-.61-.04-4.98 3.02-6.14 4.36-1 1.12-1.2 1.05-1.2 3.03 0 1.3.15 5.8.12 9.8 1.55.17 3.82.6 4.5 1.63 0 0-.24-6.26 6.68-2.98 0 0 .24-8.54 9.8-6.35a37.5 37.5 0 0 0-11.71-9.37z"/>
  <path fill="#F06351" d="M45.38 23.44c.04-4.83-.36-9.66-1.2-14.42 0 0-.12-1.13-.74-.2-.5 1.1-.85 2.27-1.02 3.48a59.42 59.42 0 0 0-10.97.3c-.7-2.4-1.9-3.49-2.47-3.2-.57.29-.64 2.86-.64 2.86l-.28 12.35c5.74-.8 11.53-1.2 17.32-1.17z"/>
  <path fill="#E55645" d="M44.89 47.67c.1-.93.17-2.17.2-3.54l-6.97 1.9a53.8 53.8 0 0 1-6.67 1.54l.95 4.36c0 .1 0 .2.06.29 1.3.85 2.66 1.6 4.07 2.22 2.07-1 4.04-2.21 5.89-3.6v.05a13.4 13.4 0 0 0 2.47-3.22z"/>
  <path fill="#000000" d="M33.47 20.71c-.04-.08.86.6 1.2.8.36.22.53.37.53.52 0 .15-.22.3-.53.3-.31 0-.79-.1-.86-.23-.07-.12.52 0 .8 0h.25c-.52-.4-1-.86-1.39-1.39z"/>
  <path fill="#000000" d="M39.88 20.8s-.85 1.13-.93 1.18c-.07.05-.14.3.16.25.36-.05.7-.13 1.05-.24.1-.06.06-.18-.1-.16-.17.02-.59.04-.86.1l.73-1.11s.02-.1-.05-.01z"/>
  <path fill="#000000" d="M37.2 26.14c.4-.18.72-.48.93-.87.24-.58 0-.8-.37-.88-.52-.1-1.06.01-1.5.3-.33.32-.3.64 0 .87.29.24.6.43.94.58z"/>
  <path fill="#F06351" d="M36.9 27.24c-.1.2-.24.37-.4.52-.25.2-.55.32-.86.33-.47.05-.94-.09-1.31-.38a1.6 1.6 0 0 1-.46-.4.86.86 0 0 0-.3-.21s.64 3.59 2.2 4.16c1.55.58 1.84-.66 1.88-1a4.98 4.98 0 0 0-.7-2.82c0-.26-.02-.09-.06-.2z"/>
  <path fill="#000000" d="M35.44 28.23A2.96 2.96 0 0 1 33.43 27a.13.13 0 0 1 0-.18.12.12 0 0 1 .13-.03l.04.03a2.78 2.78 0 0 0 1.8 1.14 1.78 1.78 0 0 0 1.4-.87l.13-.16.08.19s.33.66.86.7c.53.03.9-.37 1.39-1.13a.12.12 0 0 1 .17-.03c.03.01.05.04.05.08.01.03 0 .06-.01.09-.57.86-1.11 1.27-1.62 1.23a1.3 1.3 0 0 1-.96-.64 1.95 1.95 0 0 1-1.45.82z"/>
  <path  fill="#FDC305" d="M37.11 39.98a3.25 3.25 0 0 0 3.21-3.27 3.25 3.25 0 0 0-3.2-3.28 3.24 3.24 0 0 0-3.21 3.28c0 1.8 1.43 3.27 3.2 3.27z"/>
  <path  fill="#111111" d="M41.36 34.04 38.7 35.2l.98-4.91-6.41 8.51 2.67-1.14-.98 4.92 6.41-8.53zm-6.32 3.35 3.56-4.72-.7 3.49 1.72-.72-3.58 4.73.69-3.5-1.69.72z"/>
  <path  fill="#111111" d="M33.85 36.1c.53 0 .95-.43.95-.97a.97.97 0 0 0-.95-.98.97.97 0 0 0-.96.98c0 .54.43.97.96.97z"/>
  <path  fill="#111111" d="M39.42 39.65c.38 0 .68-.31.68-.7a.67.67 0 1 0-1.35.01c0 .38.3.69.67.69z"/>
  <path  fill="#111111" d="M40.24 37.75a.3.3 0 0 0 .3-.3.3.3 0 0 0-.3-.3.3.3 0 0 0-.3.3c0 .17.14.3.3.3z"/>
  <path  fill="#F06351" d="M45.34 25.02c-1.54 1.42-3 2.94-4.35 4.55a27.48 27.48 0 0 1-4.54 4.27c-.2-.46-1.4-1.32-1.4-1.32s-2.68-1.88-4.44-3.35a27.73 27.73 0 0 1-2.69-2.62l-1.71-.1a19.39 19.39 0 0 0 10.26 7.72c.74-.13 2.8-1.64 4.36-2.87a49.8 49.8 0 0 0 5.13-5.15c.42-.52.75-1.1.97-1.75-.97.34-1.59.62-1.59.62z"/>
  <path  fill="#F06351" d="M28.28 31s-3.26-1.27-4.46-1.6a3.16 3.16 0 0 0-3.42.54 4.42 4.42 0 0 0-1.48 3.36c.18.4.32.83.41 1.27.05.42-1.02.37-1.7.37-.69 0-.8-1.25-.25-2.73a20.7 20.7 0 0 1 1.55-3.26c-4.66 2.48-12.83 8.2-12.83 8.2a38.4 38.4 0 0 1 7 .21c4.5.46 4.28 4.07 4.28 4.07 1.58-.44 3.2-.76 4.82-.96 1.81-.13 1.94 1.85 1.94 1.85l.45 3.36c.7-.76 1.45-1.45 2.27-2.06a5.11 5.11 0 0 1 3.75-1.13l-2.33-11.5z"/>
  <path  fill="none" stroke="null" stroke-linecap="null" stroke-linejoin="null" stroke-width="null" d="M38.32 72.72v11.97"/>
  <path  fill="none" stroke="null" stroke-linecap="null" stroke-linejoin="null" stroke-opacity="null" stroke-width="null" d="M58.21 73.28 38.68 84.14"/>
  <path  fill="none" stroke="null" stroke-opacity="null" stroke-width="null" d="M38.13 73.28c0 .18-.05.23-.18.36-.13.14 0 .37 0 .56 0 .18-.06.24-.19.37s0 .36 0 .55c0 .18-.18.37-.18.55v1.66c0 .18-.04.37 0 .55.1.4.18.55.18.74 0 .18.19.18.19.37v2.39c0 .18.08.31.18.55.07.17 0 .37 0 .55 0 .19.19.37.19.74v1.47"/>
  <path  fill="none" stroke="null" stroke-linecap="null" stroke-linejoin="null" stroke-opacity="null" stroke-width="null" d="m38.32 72.91 1.1 10.68"/>
  <path  fill="none" stroke="null" stroke-opacity="null" stroke-width="null" d="M38.13 72.91h.37v10.87h-.37z"/>
  <path  fill="#ffffff" stroke="null" stroke-opacity="null" stroke-width="null" d="M40.31 86.52V65.16l20.43 21.36H40.31z" transform="rotate(86.19 50.53 75.84)"/>
</svg>
